<?xml version="1.0" encoding="UTF-8"?><svg id="Layer_1" xmlns="http://www.w3.org/2000/svg" viewBox="0 0 380.92 224.15"><path d="m145.92,14.05c17.67,9.37,31.34,22.51,41.03,39.43,9.68,16.92,14.53,36.46,14.53,58.59s-4.84,41.4-14.53,58.43c-9.69,17.03-23.42,30.23-41.19,39.59-17.78,9.37-38.37,14.05-61.78,14.05H2.84c-1.57,0-2.84-1.27-2.84-2.84V2.84C0,1.27,1.27,0,2.84,0h81.14c23.63,0,44.27,4.69,61.94,14.05Zm-17.24,145.92c11.49-11.28,17.24-27.25,17.24-47.9s-5.75-36.72-17.24-48.21-27.57-17.24-48.21-17.24h-23.03c-1.57,0-2.84,1.27-2.84,2.84v124.6c0,1.57,1.27,2.84,2.84,2.84h23.03c20.64,0,36.72-5.64,48.21-16.92Z" style="fill:#ededed;"/><path d="m286.73,2.84v218.47c0,1.57-1.27,2.84-2.84,2.84h-48.92c-1.57,0-2.84-1.27-2.84-2.84V2.84c0-1.57,1.27-2.84,2.84-2.84h48.92c1.57,0,2.84,1.27,2.84,2.84Z" style="fill:#ff6b6b;"/><path d="m380.92,2.84v218.47c0,1.57-1.27,2.84-2.84,2.84h-48.92c-1.57,0-2.84-1.27-2.84-2.84V2.84c0-1.57,1.27-2.84,2.84-2.84h48.92c1.57,0,2.84,1.27,2.84,2.84Z" style="fill:#ff6b6b;"/></svg>